<?xml version="1.0" standalone="no"?>
<!DOCTYPE svg PUBLIC "-//W3C//DTD SVG 20010904//EN"
 "http://www.w3.org/TR/2001/REC-SVG-20010904/DTD/svg10.dtd">
<svg version="1.0" xmlns="http://www.w3.org/2000/svg"
 width="1024.000000pt" height="1024.000000pt" viewBox="0 0 1024.000000 1024.000000"
 preserveAspectRatio="xMidYMid meet">

<g transform="translate(0.000000,1024.000000) scale(0.100000,-0.100000)"
fill="#000000" stroke="none">
<path d="M3754 8781 c-19 -11 -37 -34 -43 -53 l-11 -34 -48 9 c-64 14 -109 -9
-173 -85 -54 -65 -59 -87 -29 -136 26 -43 25 -47 -10 -62 -53 -22 -70 -54 -70
-132 0 -75 15 -114 54 -146 23 -17 25 -24 19 -70 -5 -42 -2 -55 18 -83 l23
-32 -25 6 c-13 4 -58 12 -100 18 -93 15 -284 -1 -380 -31 -180 -55 -401 -251
-492 -435 -98 -198 -114 -460 -40 -675 20 -61 23 -76 12 -83 -8 -4 -38 -21
-66 -38 -97 -55 -88 110 -87 -1519 l0 -1435 27 -133 c33 -158 47 -202 98 -303
80 -161 222 -318 388 -429 185 -124 339 -182 556 -211 123 -16 3136 -25 3333
-10 315 25 589 113 767 246 138 104 268 253 335 385 35 70 83 219 107 335 17
85 18 167 17 1561 -2 1094 -5 1477 -14 1493 -10 20 -18 22 -88 19 l-77 -3 0
-396 0 -395 -26 35 c-38 52 -496 491 -571 548 -21 15 -37 30 -37 33 -1 3 23
16 52 29 28 13 76 39 105 57 43 28 62 34 106 34 43 0 61 6 93 29 89 65 163
182 163 258 0 50 17 87 55 123 54 50 70 96 69 195 -2 133 -21 187 -99 275 -36
41 -65 78 -65 83 0 5 5 17 10 27 14 27 -18 92 -80 162 -60 68 -111 95 -147 79
-21 -9 -30 -7 -66 18 -68 46 -118 68 -185 81 -83 17 -222 8 -292 -18 -30 -11
-91 -32 -135 -47 -44 -15 -95 -34 -114 -43 -52 -25 -127 -126 -151 -201 -11
-35 -32 -77 -46 -94 -14 -17 -30 -42 -36 -56 l-10 -26 -11 34 c-14 40 -49 54
-109 45 -41 -7 -36 -15 -58 96 -6 30 -23 78 -39 107 l-29 52 25 16 c30 20 63
73 63 103 0 17 6 22 28 23 45 2 48 0 95 -46 42 -43 47 -45 101 -45 66 0 110
19 129 57 13 25 19 26 74 24 48 -2 64 2 87 20 33 26 76 111 76 151 0 18 9 33
30 48 31 22 50 71 50 131 0 54 -17 92 -50 111 -29 17 -30 19 -24 71 8 64 -7
97 -65 150 -46 42 -76 52 -126 43 -31 -6 -36 -4 -49 23 -24 46 -53 61 -117 61
-75 0 -114 -15 -139 -54 -17 -29 -27 -34 -72 -39 -48 -6 -58 -12 -105 -61 -57
-58 -62 -76 -38 -133 20 -48 20 -50 -15 -68 -77 -40 -80 -166 -6 -234 18 -17
26 -35 26 -59 l0 -34 -39 31 c-40 32 -69 38 -101 21 -21 -11 -105 1 -122 18
-7 7 -2 28 16 67 14 32 26 63 26 70 0 37 -208 153 -250 140 -12 -4 -37 -29
-56 -56 -35 -47 -36 -48 -62 -35 -15 8 -55 20 -90 26 l-62 13 0 59 c0 49 -4
63 -25 83 -23 24 -30 25 -145 25 -173 0 -187 -9 -192 -129 l-3 -55 -59 -13
c-33 -7 -65 -18 -73 -25 -16 -13 -17 -12 -57 49 -19 29 -40 49 -53 51 -27 4
-149 -48 -208 -88 -54 -37 -56 -57 -18 -125 25 -46 25 -48 7 -58 -10 -6 -32
-24 -47 -40 l-28 -30 -27 26 c-15 14 -34 27 -42 28 -26 5 -59 -11 -65 -32 -7
-22 -30 -25 -38 -5 -4 9 2 17 13 21 32 10 68 63 75 109 12 79 -2 126 -52 174
l-44 43 16 43 c14 36 15 48 5 67 -26 49 -83 110 -122 130 -38 19 -53 20 -109
3 -11 -3 -20 5 -29 26 -19 47 -74 70 -162 70 -54 0 -81 -5 -104 -19z m166
-133 c0 -54 7 -63 50 -71 19 -4 47 -10 63 -13 24 -6 29 -3 38 25 11 32 12 32
33 13 11 -10 33 -26 49 -35 32 -21 34 -30 7 -57 -24 -24 -27 -88 -5 -130 11
-21 23 -30 47 -32 32 -3 33 -5 40 -58 3 -30 4 -58 2 -62 -3 -5 -19 -8 -35 -8
-74 0 -105 -91 -49 -145 17 -16 30 -32 30 -35 0 -10 -69 -40 -91 -40 -12 0
-34 7 -49 17 -27 15 -30 15 -76 -8 -31 -15 -50 -31 -52 -44 -9 -65 -9 -65 -67
-65 l-55 0 0 40 c0 44 -15 58 -82 80 -34 10 -41 9 -74 -14 -44 -29 -63 -24
-87 26 -15 31 -15 33 14 65 33 39 34 42 15 88 -14 33 -18 35 -60 35 -40 0 -46
3 -52 24 -11 44 -1 91 21 94 58 8 62 12 84 68 11 31 21 60 21 65 0 4 -13 23
-29 42 l-30 33 36 28 35 28 29 -21 c35 -26 32 -26 96 1 51 21 53 23 53 59 l0
38 48 4 c26 2 55 4 65 5 14 2 17 -6 17 -40z m2553 -18 c8 -39 43 -60 111 -67
l56 -6 21 -71 c11 -39 31 -88 45 -108 29 -45 31 -79 5 -102 -25 -23 -62 -110
-55 -129 3 -9 1 -25 -5 -36 -10 -17 -21 -20 -78 -20 -48 1 -69 -3 -72 -13 -10
-30 -60 -68 -90 -68 -24 0 -35 7 -54 36 -18 29 -36 41 -82 58 -58 20 -61 23
-77 73 -9 28 -26 65 -39 82 l-23 31 24 78 c13 42 25 99 25 127 l1 50 44 7 c25
3 63 13 85 21 36 12 40 18 43 50 l3 37 53 0 c51 0 54 -1 59 -30z m-1053 -425
c147 -45 328 -166 425 -285 145 -176 198 -329 198 -565 0 -160 -24 -266 -90
-405 -40 -83 -58 -107 -142 -190 -188 -187 -410 -270 -686 -257 -243 11 -434
100 -605 284 -143 153 -208 318 -217 548 -6 157 6 250 49 353 121 294 379 491
703 536 71 10 311 -3 365 -19z m-1295 -341 c118 -9 118 -9 86 -110 -11 -32
-27 -85 -36 -116 l-16 -58 -59 0 c-64 0 -63 0 -85 -65 -6 -17 -9 -15 -26 19
-31 65 -126 181 -182 225 -64 49 -103 89 -94 97 3 4 13 -1 23 -10 34 -35 92
-56 153 -56 78 0 88 5 112 52 17 33 24 39 42 33 12 -4 49 -9 82 -11z m2983
-46 l-3 -53 55 -5 c30 -3 74 -16 97 -28 55 -29 71 -28 106 6 l28 27 45 -47
c24 -26 44 -51 44 -56 0 -4 -9 -18 -20 -30 -11 -12 -20 -25 -20 -29 0 -4 18
-34 39 -66 22 -31 42 -75 46 -97 8 -50 28 -70 66 -70 36 0 49 -27 49 -106 l0
-56 -47 3 c-29 2 -48 -1 -50 -8 -3 -7 -10 -10 -17 -7 -15 6 -54 -66 -62 -113
-2 -15 -7 -35 -11 -43 -9 -23 -3 -52 18 -82 18 -25 19 -30 5 -55 -8 -15 -28
-44 -44 -63 l-30 -35 -43 31 c-26 18 -43 38 -43 48 1 9 -1 16 -5 14 -3 -2 -28
-15 -56 -29 -27 -15 -69 -32 -92 -39 -55 -17 -77 -49 -71 -105 l5 -42 -68 -2
-69 -2 0 64 0 65 -98 36 c-54 20 -103 36 -108 36 -5 0 -26 -14 -47 -31 l-37
-30 -40 32 c-22 18 -47 44 -56 57 -16 25 -16 26 20 59 l37 34 -21 35 c-12 19
-25 32 -29 29 -9 -5 -36 54 -45 97 -6 28 -46 48 -95 48 -48 0 -54 11 -46 88 4
39 12 76 19 81 6 5 31 11 55 13 l43 3 23 62 c12 34 36 78 54 98 27 31 30 39
20 58 -7 12 -18 26 -25 30 -23 13 -16 35 23 77 57 65 68 67 107 25 l34 -36 67
36 c45 23 80 35 107 35 l41 0 -6 39 c-3 22 -2 42 1 45 3 3 38 6 79 6 l74 0 -3
-52z m-3730 -13 c141 -24 265 -95 374 -214 126 -136 178 -299 157 -493 -11
-99 -50 -190 -77 -182 -11 4 -13 3 -5 -3 16 -11 2 -82 -26 -127 -54 -87 -191
-179 -351 -236 -56 -21 -85 -24 -205 -24 -163 -1 -225 12 -352 75 -86 42 -143
94 -227 203 -57 73 -82 139 -97 252 -29 222 33 406 190 563 159 159 387 227
619 186z m2952 -680 c5 -13 21 -43 36 -66 14 -23 37 -73 50 -111 13 -38 32
-84 43 -101 21 -33 95 -108 145 -145 31 -24 94 -30 113 -11 18 18 93 -43 93
-75 0 -3 -174 -6 -386 -6 -350 0 -384 1 -370 16 24 23 31 64 16 98 -21 53 -18
69 16 79 27 8 38 21 69 88 35 75 36 82 30 151 -3 40 -2 78 2 85 8 11 42 19
101 22 26 1 34 -4 42 -24z m-2172 -29 c11 -34 10 -43 -9 -81 l-21 -43 21 -65
c12 -36 31 -78 43 -92 17 -22 26 -25 71 -23 l52 3 3 -47 3 -46 -93 5 c-140 8
-194 -13 -250 -97 l-16 -25 -24 23 -23 23 23 37 c64 104 112 238 138 385 7 45
14 83 14 85 0 2 12 2 28 0 21 -2 30 -11 40 -42z m-1523 -541 c94 -94 166 -144
253 -175 34 -12 62 -24 62 -26 0 -1 -80 0 -177 3 -101 3 -201 1 -230 -4 l-53
-10 1 186 0 186 32 -40 c17 -22 67 -76 112 -120z m1584 39 l61 -7 0 -68 c0
-57 3 -69 16 -69 9 0 43 -12 75 -26 l59 -27 45 42 c24 22 48 41 52 41 5 0 33
-28 63 -61 l56 -62 -49 -47 c-43 -40 -48 -49 -38 -66 6 -10 17 -39 24 -64 l13
-45 72 -9 73 -9 -3 -91 -3 -91 -66 3 -67 4 -21 -62 c-22 -67 -20 -79 23 -119
14 -14 26 -31 26 -40 0 -8 -23 -39 -52 -68 l-51 -52 -48 40 -47 40 -44 -20
c-24 -10 -56 -23 -73 -28 -29 -8 -30 -10 -33 -81 l-3 -72 -84 0 -85 0 0 63 c0
34 -4 67 -8 73 -4 7 -40 23 -81 37 l-75 25 -50 -48 -51 -48 -52 60 c-29 32
-53 67 -53 76 0 10 18 37 41 60 l40 42 -19 53 -20 52 -70 3 -69 3 -6 49 c-3
28 -3 72 0 100 l6 50 68 0 68 0 11 43 c6 23 15 53 21 67 10 22 6 29 -44 77
l-54 52 56 55 c31 31 61 56 67 56 6 0 32 -18 57 -40 25 -22 49 -40 54 -40 5 0
26 9 48 20 21 11 53 23 71 26 29 5 32 10 38 51 3 25 6 59 6 74 0 33 4 34 109
23z m1666 -14 c3 -5 -1 -10 -9 -10 -9 0 -16 5 -16 10 0 6 4 10 9 10 6 0 13 -4
16 -10z m1055 -212 c0 -47 -3 -56 -15 -52 -35 14 -45 -14 -45 -125 0 -229 29
-422 91 -599 16 -46 29 -92 29 -102 0 -29 -17 -33 -41 -9 -18 18 -25 19 -46
10 -29 -13 -73 -14 -73 -2 0 6 4 12 9 15 4 3 16 33 26 68 16 57 16 63 1 73 -9
7 -16 18 -16 25 0 10 -3 10 -15 0 -8 -7 -15 -24 -15 -39 0 -18 -9 -32 -30 -46
-29 -19 -39 -35 -22 -35 5 0 12 3 15 7 4 3 18 7 31 8 18 0 23 -4 20 -18 -11
-58 -13 -60 -89 -72 l-40 -6 1 121 0 120 -55 0 c-64 0 -96 14 -71 30 13 9 13
11 0 21 -11 8 -12 12 -2 16 8 3 12 32 12 94 0 82 -1 89 -20 89 -18 0 -20 7
-20 80 l0 80 -69 0 c-85 0 -131 9 -131 25 0 15 -39 28 -41 14 -5 -31 -2 -44
10 -41 7 1 10 -1 7 -6 -3 -5 12 -25 34 -45 31 -27 40 -43 41 -69 1 -18 3 -25
6 -15 8 29 20 19 15 -13 -2 -16 -7 -28 -11 -26 -4 3 -16 -11 -26 -30 -19 -36
-87 -84 -121 -85 -15 0 -14 -2 6 -10 13 -6 35 -7 47 -4 23 5 33 -10 12 -17 -9
-3 -9 -9 -1 -24 10 -18 7 -19 -36 -18 -26 1 -52 3 -57 4 -6 1 -29 2 -52 1 -36
-1 -43 -4 -43 -21 0 -14 -7 -20 -21 -20 -12 0 -23 -8 -26 -20 -3 -11 -11 -20
-18 -20 -7 0 -15 -7 -19 -15 -4 -12 3 -13 38 -9 39 6 46 4 60 -19 12 -18 16
-42 14 -83 -3 -56 -4 -59 -43 -82 l-40 -24 58 6 c31 2 57 1 57 -3 0 -9 -6 -8
129 -17 80 -5 102 -4 97 5 -6 9 4 11 38 9 25 -2 46 -6 46 -9 0 -6 287 -14 440
-13 125 2 208 10 224 23 7 6 15 9 17 7 10 -8 79 -14 74 -6 -3 5 10 4 28 -1 43
-12 100 -6 105 11 3 9 -1 11 -12 7 -28 -11 -56 14 -56 51 0 34 -2 33 60 18 3
0 6 4 8 9 1 6 -12 12 -30 15 -27 4 -34 10 -36 33 -5 38 24 70 54 63 13 -4 26
-2 29 4 19 31 41 -20 22 -52 -9 -16 -9 -22 1 -25 21 -8 15 -80 -8 -96 -23 -16
-17 -27 15 -27 28 0 47 -22 39 -44 -4 -11 -1 -16 10 -16 9 0 16 -4 16 -10 0
-7 -293 -10 -859 -10 l-859 0 -7 265 c-13 469 1 583 81 672 20 21 32 32 29 25
-6 -11 -3 -11 14 0 12 7 21 16 21 21 0 4 5 5 10 2 10 -6 48 1 155 28 37 9 38
11 15 17 -25 7 -25 7 5 11 17 2 207 4 422 4 l393 0 0 -57z m-2017 17 c56 -15
67 -21 67 -39 0 -12 3 -37 6 -56 5 -33 3 -37 -35 -58 -23 -12 -57 -37 -77 -54
-35 -31 -37 -31 -50 -13 -8 10 -14 22 -14 27 0 4 -18 17 -40 28 -23 12 -43 27
-46 35 -4 8 10 36 29 62 19 27 38 59 42 71 8 26 3 26 118 -3z m625 -25 c49
-51 85 -63 110 -38 19 19 21 6 5 -47 -15 -56 -29 -150 -40 -275 l-8 -85 -24
70 c-37 112 -105 191 -208 245 -46 23 -51 39 -37 107 5 27 12 32 57 42 29 6
59 16 67 21 23 15 27 13 78 -40z m-1941 -54 c24 -37 24 -39 7 -49 -36 -20 -84
-78 -95 -117 -7 -22 -14 -40 -16 -40 -2 0 -39 29 -81 65 -42 36 -103 79 -135
95 -66 33 -73 28 81 55 51 8 114 24 140 34 54 22 61 19 99 -43z m3540 -13
c130 -125 413 -408 413 -413 0 -9 -443 1 -462 11 -16 9 -18 28 -18 223 0 181
3 226 15 226 1 0 24 -21 52 -47z m-4287 -73 c72 -12 245 -59 302 -83 92 -38
226 -153 290 -249 81 -119 125 -257 135 -421 l6 -98 -546 1 -545 2 -4 411 c-2
227 -2 414 -1 416 4 6 198 29 253 30 25 0 74 -4 110 -9z m2514 -179 c29 -32 9
-25 -27 10 -20 19 -24 27 -12 21 11 -6 29 -20 39 -31z m46 -72 c0 -4 -5 -11
-12 -15 -7 -4 -8 -3 -4 4 4 6 2 22 -4 34 -11 22 -10 22 4 4 9 -11 16 -23 16
-27z m-500 1 c0 -5 -5 -10 -11 -10 -5 0 -7 5 -4 10 3 6 8 10 11 10 2 0 4 -4 4
-10z m337 -21 c67 -42 85 -132 36 -190 -70 -82 -188 -76 -243 13 -16 25 -20
46 -17 88 3 53 22 100 40 100 5 0 -1 -12 -12 -26 -31 -39 -26 -51 6 -14 14 18
36 36 47 40 40 16 107 11 143 -11z m-362 -40 c-8 -23 -15 -51 -16 -63 0 -11
-3 -15 -6 -8 -7 17 17 112 28 112 4 0 2 -19 -6 -41z m735 -358 l0 -178 -122
-6 c-68 -3 -173 -11 -235 -18 -88 -10 -139 -10 -240 -1 -70 7 -234 12 -363 12
-129 0 -251 3 -271 6 l-37 6 23 34 c13 19 26 48 30 64 6 29 28 40 40 20 12
-19 94 -11 144 15 62 31 103 72 133 133 l24 49 34 -66 c68 -132 197 -233 322
-252 111 -17 251 24 351 105 67 53 147 190 147 252 0 8 5 12 10 9 6 -4 10 -76
10 -184z m1506 170 c-5 -8 -56 -3 -56 5 0 2 14 4 31 4 16 0 28 -4 25 -9z
m-528 -48 c2 -7 -4 -13 -13 -13 -10 0 -14 5 -9 13 4 6 3 8 -1 4 -5 -4 -8 -48
-6 -98 3 -84 1 -91 -18 -96 -12 -3 -21 -9 -21 -14 0 -5 -5 -9 -11 -9 -8 0 -7
5 2 16 11 14 10 18 -6 30 -17 13 -20 12 -27 -6 -9 -25 -36 -26 -62 -1 -30 27
-62 30 -80 6 -11 -15 -27 -20 -70 -21 l-56 -1 -10 36 c-5 20 -10 48 -10 64 0
34 35 71 61 64 10 -3 22 -1 25 4 9 15 61 10 78 -6 14 -14 17 -14 36 5 27 27
35 26 81 -11 l39 -31 0 35 c0 25 5 37 18 40 28 8 55 3 60 -10z m532 -45 c0
-12 -8 -18 -24 -18 -13 0 -27 -8 -30 -17 -9 -22 24 -67 52 -71 25 -4 38 -32
20 -44 -7 -5 -33 -6 -57 -3 -24 3 -52 5 -62 5 -16 0 -19 8 -19 53 1 59 9 74
65 109 41 26 55 23 55 -14z m164 5 c-4 -10 -10 -49 -13 -88 -6 -66 -7 -70 -31
-70 -24 0 -25 2 -23 58 l2 57 -29 0 c-25 0 -30 4 -30 24 0 27 14 32 89 35 38
1 42 -1 35 -16z m-87 -59 c-3 -3 -12 -4 -19 -1 -8 3 -5 6 6 6 11 1 17 -2 13
-5z m-3405 -87 c27 -20 37 -20 121 -1 25 6 29 2 47 -39 11 -26 25 -49 30 -52
27 -17 -12 -25 -119 -25 l-118 0 -7 38 c-3 20 -6 54 -6 75 0 41 1 41 52 4z
m3081 -34 c-7 -2 -21 -2 -30 0 -10 3 -4 5 12 5 17 0 24 -2 18 -5z m-1885 -257
c12 -5 22 -11 22 -15 0 -3 -51 -17 -112 -29 -370 -75 -671 -341 -786 -692 -54
-167 -65 -245 -53 -384 10 -124 42 -258 85 -351 15 -34 23 -72 24 -117 2 -70
24 -146 72 -254 43 -96 209 -256 340 -328 64 -34 206 -77 305 -91 55 -8 53
-10 -17 -20 -31 -4 -48 -11 -48 -20 0 -9 -18 -16 -52 -20 -29 -4 -370 -5 -758
-3 l-705 4 -100 31 c-120 38 -195 69 -195 82 0 12 -132 102 -156 105 -11 2
-18 10 -16 20 2 9 -1 16 -6 16 -5 0 -22 11 -37 24 -16 14 -32 23 -37 20 -4 -3
-14 10 -21 28 -8 18 -22 40 -33 48 -18 14 -18 14 -3 -5 28 -36 34 -51 10 -30
-27 24 -114 162 -114 181 0 8 -4 14 -7 14 -10 0 -53 100 -46 107 4 4 36 -61
36 -73 0 -2 8 -13 18 -24 9 -11 16 -23 14 -26 -4 -7 31 -64 41 -64 4 0 6 3 4
8 -13 23 -69 148 -98 217 -28 68 -34 76 -39 55 l-6 -25 -7 25 c-4 15 -2 27 4
29 8 2 7 6 -1 11 -7 5 -14 19 -14 32 -1 12 -6 30 -11 38 -11 17 -21 1426 -10
1467 l6 24 1242 -4 c683 -2 1252 -7 1265 -11z m2739 -730 c-4 -802 -9 -867
-54 -874 -17 -3 -20 1 -16 25 3 20 -6 9 -31 -36 -52 -93 -68 -107 -133 -115
-39 -4 -60 -3 -71 6 -13 11 -14 10 -4 -9 19 -35 14 -63 -18 -95 l-30 -30 -293
2 c-437 3 -721 1 -714 -6 4 -4 53 -9 109 -11 56 -2 104 -7 107 -11 4 -5 16 -8
29 -9 46 -2 50 -4 56 -25 4 -18 8 -20 18 -10 6 6 23 12 36 12 13 0 20 4 17 10
-4 6 5 10 19 10 19 0 26 -5 26 -20 0 -17 7 -20 40 -20 22 0 40 5 40 10 0 6 19
10 43 10 l43 0 -4 -40 -4 -40 41 0 c34 0 41 -3 41 -20 0 -13 7 -20 20 -20 13
0 20 -7 20 -20 0 -13 7 -20 20 -20 17 0 20 7 20 40 l0 40 40 0 40 0 0 -40 c0
-33 3 -40 20 -40 27 0 27 -41 -1 -60 -12 -8 -27 -21 -35 -27 -7 -7 -17 -13
-23 -13 -5 0 -13 -5 -17 -12 -4 -6 -3 -8 2 -5 6 3 16 2 24 -4 10 -6 11 -9 3
-9 -7 0 -13 -5 -13 -10 0 -7 6 -7 19 0 11 5 23 10 28 10 4 -1 -3 -7 -16 -14
-14 -8 -30 -12 -36 -9 -7 2 -18 -3 -25 -12 -14 -16 -35 -21 -25 -5 3 6 -4 10
-16 10 -19 0 -20 -2 -8 -17 10 -11 10 -14 2 -9 -7 4 -13 2 -13 -3 0 -6 -16
-11 -35 -11 -19 0 -35 -4 -35 -9 0 -17 -128 -36 -245 -36 -66 0 -222 4 -347 9
-124 5 -234 6 -245 1 -25 -10 -480 -18 -580 -10 l-83 7 0 39 c0 31 5 42 28 56
15 10 29 20 32 24 3 3 37 22 75 42 39 20 84 53 100 73 17 21 51 62 76 93 93
114 166 251 155 294 -2 9 -1 15 3 13 16 -10 33 14 56 80 30 85 33 126 5 70
-11 -22 -26 -46 -33 -55 -8 -9 -17 -24 -20 -33 -4 -10 -11 -18 -17 -18 -5 0
-10 -8 -10 -18 0 -11 -9 -27 -20 -37 -11 -10 -17 -21 -15 -25 3 -5 -7 -13 -23
-18 -15 -6 -38 -21 -52 -34 -64 -59 -58 -45 11 27 134 142 183 232 229 420 54
220 50 375 -15 600 -50 172 -186 370 -335 487 -113 89 -307 175 -447 199 -84
14 -99 26 -42 33 76 10 136 11 1337 12 l1173 2 -4 -742z m-2543 544 c127 -12
216 -43 321 -111 172 -111 280 -228 355 -384 62 -129 82 -216 82 -375 1 -142
-23 -260 -72 -365 -86 -181 -268 -348 -470 -429 -202 -82 -502 -71 -693 26
-151 76 -269 177 -352 303 -97 147 -115 199 -135 381 -21 206 11 359 115 536
120 206 394 387 630 417 99 12 98 12 219 1z m-2650 -1445 c3 -8 1 -15 -4 -15
-6 0 -10 7 -10 15 0 8 2 15 4 15 2 0 6 -7 10 -15z m5136 5 c0 -5 -4 -10 -10
-10 -5 0 -10 5 -10 10 0 6 5 10 10 10 6 0 10 -4 10 -10z m-742 -267 c-10 -2
-26 -2 -35 0 -10 3 -2 5 17 5 19 0 27 -2 18 -5z m584 -65 c-5 -5 -18 -8 -28
-5 -15 4 -14 5 4 6 15 1 21 5 16 13 -5 7 -3 8 5 3 8 -5 9 -11 3 -17z m-102
-102 c0 -2 -7 -9 -15 -16 -13 -11 -14 -10 -9 4 5 14 24 23 24 12z"/>
<path d="M3780 8462 c-20 -10 -50 -39 -68 -67 -31 -45 -34 -56 -30 -107 11
-147 165 -226 287 -145 113 75 106 259 -12 316 -53 26 -128 27 -177 3z m140
-114 c27 -30 26 -73 -5 -103 -33 -34 -67 -32 -99 6 -30 35 -32 49 -11 89 13
26 21 30 55 30 27 0 45 -7 60 -22z"/>
<path d="M6339 8431 c-36 -36 -39 -43 -39 -95 0 -96 43 -146 125 -146 59 0
101 26 126 77 48 98 -20 203 -132 203 -35 0 -48 -6 -80 -39z"/>
<path d="M5035 7988 c-2 -7 -6 -42 -7 -77 l-3 -64 -41 -15 c-46 -17 -50 -16
-118 33 -26 19 -52 35 -57 35 -18 0 -179 -143 -179 -160 0 -6 21 -33 47 -61
l46 -49 -13 -40 c-18 -55 -30 -62 -109 -68 -53 -3 -70 -8 -73 -21 -3 -9 -3
-71 0 -138 l4 -123 59 0 c77 0 104 -12 118 -51 16 -47 15 -52 -29 -105 -22
-27 -40 -54 -40 -61 0 -34 141 -173 175 -173 6 0 32 18 59 40 54 45 64 47 111
24 31 -15 33 -19 40 -84 l7 -68 71 -7 c40 -4 101 -5 137 -3 l65 3 7 64 c9 85
10 85 57 100 l42 12 51 -45 c27 -26 55 -46 60 -46 14 0 178 161 178 174 0 6
-20 35 -44 65 -38 45 -43 57 -36 81 18 62 25 67 100 72 39 3 76 10 81 15 5 5
8 66 7 139 l-3 129 -75 5 -75 5 -14 41 c-18 52 -10 85 34 133 l35 39 -40 48
c-44 54 -117 113 -139 114 -8 0 -39 -19 -69 -41 -47 -36 -59 -40 -90 -35 -19
3 -40 10 -46 16 -6 6 -13 43 -16 83 l-5 72 -133 3 c-100 2 -134 0 -137 -10z
m308 -241 c134 -66 225 -197 235 -337 4 -59 1 -79 -23 -137 -29 -75 -79 -160
-104 -181 -9 -7 -59 -34 -111 -60 -88 -44 -100 -47 -170 -47 -61 1 -91 7 -157
34 -45 17 -100 47 -123 64 -71 56 -148 245 -137 336 10 85 45 158 107 225 136
145 319 184 483 103z"/>
<path d="M5098 7483 c-36 -39 -48 -66 -48 -108 0 -75 72 -131 145 -115 56 13
105 67 105 117 0 107 -135 177 -202 106z"/>
<path d="M6985 7388 c-54 -32 -86 -108 -65 -158 21 -51 64 -80 119 -80 59 0
92 23 114 79 21 52 8 99 -39 140 -37 33 -91 41 -129 19z"/>
<path d="M3180 7580 c0 -5 15 -10 33 -10 18 0 39 -6 45 -12 9 -9 15 -10 20 -2
10 17 52 -2 52 -23 0 -13 2 -15 8 -5 5 7 16 10 25 6 19 -7 23 6 6 23 -9 9 -7
10 9 6 12 -3 20 -9 17 -13 -8 -12 44 -35 56 -23 15 15 -8 29 -77 47 -69 18
-194 22 -194 6z"/>
<path d="M3525 7488 c11 -15 28 -29 38 -31 23 -7 13 7 -25 35 l-32 22 19 -26z"/>
<path d="M2957 7493 c-4 -3 -7 -16 -7 -27 0 -15 -3 -17 -8 -8 -6 9 -19 1 -46
-30 -53 -58 -69 -85 -60 -99 5 -8 3 -9 -6 -4 -10 6 -12 4 -7 -8 3 -10 3 -17
-2 -17 -13 0 -31 -106 -31 -180 0 -116 51 -231 142 -317 35 -33 125 -82 193
-104 87 -28 263 -5 342 44 56 36 145 136 175 198 15 30 35 93 44 140 17 82 17
91 1 164 -17 78 -51 150 -68 140 -5 -4 -6 0 -4 8 3 7 -3 22 -15 32 -11 10 -20
16 -20 13 0 -12 26 -56 43 -72 9 -10 17 -25 17 -34 0 -12 -3 -13 -11 -5 -9 9
-16 8 -28 -5 -15 -15 -16 -14 -19 13 -3 19 -6 24 -12 16 -6 -10 -13 -8 -29 8
-12 12 -35 24 -51 28 -17 3 -30 11 -30 19 0 7 -5 16 -11 20 -8 4 -9 0 -4 -15
5 -16 3 -20 -9 -15 -9 3 -16 10 -16 16 0 13 -26 38 -40 38 -6 0 -18 7 -26 15
-9 8 -20 15 -25 15 -5 0 -9 -7 -9 -15 0 -8 -9 -15 -20 -15 -11 0 -20 -4 -20
-10 0 -5 -7 -10 -15 -10 -8 0 -15 -4 -15 -10 0 -5 7 -10 15 -10 8 0 15 -4 15
-8 0 -5 19 -14 41 -21 56 -17 132 -90 159 -153 43 -100 12 -217 -73 -282 -75
-58 -209 -92 -258 -65 -42 22 -97 71 -124 109 -26 37 -61 180 -44 180 5 0 9
13 9 29 0 16 6 47 14 69 8 22 12 43 9 46 -3 3 4 4 15 1 11 -2 27 4 34 13 7 9
8 13 2 9 -7 -4 -14 -1 -17 7 -4 10 1 13 17 12 19 -2 22 1 18 21 -2 12 -8 23
-13 23 -5 0 -9 9 -9 20 0 11 -4 20 -10 20 -5 0 -10 -9 -10 -20 0 -11 -4 -20
-10 -20 -5 0 -10 6 -10 14 0 7 -13 16 -30 20 -21 4 -30 11 -30 26 0 11 5 20
10 20 6 0 10 5 10 10 0 11 -13 13 -23 3z m708 -192 c3 -5 1 -12 -5 -16 -5 -3
-10 1 -10 9 0 18 6 21 15 7z"/>
<path d="M3020 7289 c0 -5 5 -7 10 -4 6 3 10 8 10 11 0 2 -4 4 -10 4 -5 0 -10
-5 -10 -11z"/>
<path d="M3169 7201 c-62 -63 -22 -166 69 -178 35 -5 47 -2 67 17 37 35 49 73
35 114 -25 78 -115 102 -171 47z"/>
<path d="M6200 6167 c0 -18 57 -20 83 -2 20 14 19 15 -31 15 -36 0 -52 -4 -52
-13z"/>
<path d="M6275 6150 c-3 -5 -4 -10 -1 -10 2 0 11 -2 19 -5 8 -4 14 0 14 10 0
17 -22 21 -32 5z"/>
<path d="M6049 5980 c-3 -30 -1 -58 4 -61 5 -4 6 -12 3 -18 -9 -14 3 -53 13
-46 11 6 51 -29 51 -44 0 -6 9 -11 20 -11 11 0 20 5 20 10 0 6 7 10 16 10 8 0
12 -4 9 -10 -3 -5 0 -10 8 -10 25 0 14 29 -14 35 -61 14 -105 71 -118 154 l-7
46 -5 -55z"/>
<path d="M7385 5630 c-3 -5 -2 -10 4 -10 5 0 13 5 16 10 3 6 2 10 -4 10 -5 0
-13 -4 -16 -10z"/>
<path d="M6006 5564 c-9 -22 3 -32 14 -14 12 19 12 30 1 30 -5 0 -12 -7 -15
-16z"/>
<path d="M6120 5565 c0 -8 7 -15 15 -15 8 0 15 7 15 15 0 8 -7 15 -15 15 -8 0
-15 -7 -15 -15z"/>
<path d="M6040 5528 c0 -9 5 -20 10 -23 13 -8 13 5 0 25 -8 13 -10 13 -10 -2z"/>
<path d="M6768 5508 c9 -9 15 -9 24 0 9 9 7 12 -12 12 -19 0 -21 -3 -12 -12z"/>
<path d="M5826 5455 c-24 -24 -21 -55 7 -57 37 -2 140 3 170 8 37 8 22 27 -17
22 -21 -2 -39 3 -51 14 -10 10 -29 18 -41 18 -12 0 -29 3 -37 6 -8 3 -22 -2
-31 -11z"/>
<path d="M3272 5720 c0 -14 2 -19 5 -12 2 6 2 18 0 25 -3 6 -5 1 -5 -13z"/>
<path d="M6290 5610 c-13 -8 -12 -10 3 -10 9 0 17 5 17 10 0 12 -1 12 -20 0z"/>
<path d="M6282 5568 c2 -13 8 -23 13 -23 6 0 11 10 13 23 2 15 -2 22 -13 22
-11 0 -15 -7 -13 -22z"/>
<path d="M3110 4230 c-54 -54 5 -182 105 -230 l45 -22 0 -149 0 -150 -72 3
-73 3 -3 71 c-2 52 -7 76 -20 87 -16 15 -17 11 -19 -61 0 -42 -4 -159 -7 -259
l-6 -182 28 -32 c22 -25 38 -33 66 -33 24 -1 38 -6 41 -17 3 -8 19 -28 35 -44
60 -57 198 -40 224 27 7 18 20 31 36 34 79 17 109 45 110 99 1 106 -10 289
-19 298 -5 5 -48 9 -95 8 l-86 -2 0 128 c0 70 -3 138 -6 150 -5 19 0 25 35 39
53 21 128 104 137 151 8 42 -11 81 -45 94 -33 13 -58 3 -84 -35 -27 -40 -90
-96 -108 -96 -7 0 -40 29 -74 65 -71 76 -109 91 -145 55z m338 -732 c5 -40
-28 -55 -130 -60 -93 -5 -98 -2 -98 48 0 35 29 43 135 41 90 -2 90 -2 93 -29z"/>
<path d="M3999 4183 c-13 -16 -12 -17 4 -4 16 13 21 21 13 21 -2 0 -10 -8 -17
-17z"/>
<path d="M2723 4163 c9 -2 25 -2 35 0 9 3 1 5 -18 5 -19 0 -27 -2 -17 -5z"/>
<path d="M2670 3316 c0 -2 7 -9 15 -16 13 -11 14 -10 9 4 -5 14 -24 23 -24 12z"/>
<path d="M6808 4463 c12 -2 30 -2 40 0 9 3 -1 5 -23 4 -22 0 -30 -2 -17 -4z"/>
<path d="M6428 4073 c17 -2 47 -2 65 0 17 2 3 4 -33 4 -36 0 -50 -2 -32 -4z"/>
<path d="M7163 4073 c20 -2 54 -2 75 0 20 2 3 4 -38 4 -41 0 -58 -2 -37 -4z"/>
<path d="M7447 3758 c-11 -20 -13 -27 -4 -20 8 7 16 10 18 8 2 -2 5 7 5 20 1
13 1 24 0 24 0 0 -9 -14 -19 -32z"/>
<path d="M6413 3713 c15 -2 37 -2 50 0 12 2 0 4 -28 4 -27 0 -38 -2 -22 -4z"/>
<path d="M7243 3713 c26 -2 68 -2 95 0 26 2 4 3 -48 3 -52 0 -74 -1 -47 -3z"/>
<path d="M6935 2910 c-13 -5 -14 -9 -5 -9 8 0 24 4 35 9 13 5 14 9 5 9 -8 0
-24 -4 -35 -9z"/>
<path d="M5031 4788 c-235 -25 -430 -244 -431 -484 0 -66 29 -193 56 -246 33
-65 106 -149 161 -186 l56 -37 4 -135 c3 -83 9 -140 16 -149 7 -8 39 -32 71
-53 52 -34 66 -38 120 -38 87 1 131 13 173 51 60 52 62 56 66 194 3 116 5 129
23 135 36 14 126 103 174 175 171 254 97 563 -174 720 -83 48 -192 66 -315 53z
m213 -182 c125 -61 197 -171 199 -304 3 -146 -49 -244 -167 -311 -110 -63
-218 -63 -339 1 -116 62 -171 162 -172 313 0 80 3 96 28 145 46 90 110 144
210 176 63 21 177 11 241 -20z m-91 -833 c-7 -2 -19 -2 -25 0 -7 3 -2 5 12 5
14 0 19 -2 13 -5z"/>
</g>
</svg>
